<mxfile host="app.diagrams.net" modified="2021-01-17T02:58:03.271Z" agent="5.0 (X11; Linux x86_64) AppleWebKit/537.36 (KHTML, like Gecko) Chrome/87.0.4280.141 Safari/537.36" etag="6Vkl90MqMWQ_k5veTCCT" version="14.2.4" type="github">
  <diagram id="prtHgNgQTEPvFCAcTncT" name="Page-1">
    <mxGraphModel dx="1350" dy="806" grid="1" gridSize="10" guides="1" tooltips="1" connect="1" arrows="1" fold="1" page="1" pageScale="1" pageWidth="827" pageHeight="1169" math="0" shadow="0">
      <root>
        <mxCell id="0" />
        <mxCell id="1" parent="0" />
        <mxCell id="6k-jlg43PYKRCVEYtK7U-4" value="&lt;font style=&quot;font-size: 14px&quot;&gt;&lt;b&gt;Speaker&lt;br&gt;system&lt;/b&gt;&lt;/font&gt;" style="rounded=0;whiteSpace=wrap;html=1;direction=south;fillColor=#e1d5e7;strokeColor=#9673a6;" vertex="1" parent="1">
          <mxGeometry x="80" y="280" width="80" height="160" as="geometry" />
        </mxCell>
        <mxCell id="6k-jlg43PYKRCVEYtK7U-8" style="edgeStyle=none;rounded=0;orthogonalLoop=1;jettySize=auto;html=1;exitX=0;exitY=0.5;exitDx=0;exitDy=0;" edge="1" parent="1" source="6k-jlg43PYKRCVEYtK7U-5" target="6k-jlg43PYKRCVEYtK7U-4">
          <mxGeometry relative="1" as="geometry" />
        </mxCell>
        <mxCell id="6k-jlg43PYKRCVEYtK7U-9" style="edgeStyle=none;shape=link;rounded=0;orthogonalLoop=1;jettySize=auto;html=1;exitX=1;exitY=0.5;exitDx=0;exitDy=0;entryX=0.381;entryY=1.05;entryDx=0;entryDy=0;entryPerimeter=0;" edge="1" parent="1" source="6k-jlg43PYKRCVEYtK7U-5" target="6k-jlg43PYKRCVEYtK7U-6">
          <mxGeometry relative="1" as="geometry" />
        </mxCell>
        <mxCell id="6k-jlg43PYKRCVEYtK7U-5" value="&lt;font style=&quot;font-size: 14px&quot;&gt;&lt;b&gt;Mass Receiver&lt;/b&gt;&lt;/font&gt;" style="rounded=0;whiteSpace=wrap;html=1;fillColor=#d5e8d4;strokeColor=#82b366;" vertex="1" parent="1">
          <mxGeometry x="260" y="310" width="180" height="100" as="geometry" />
        </mxCell>
        <mxCell id="6k-jlg43PYKRCVEYtK7U-6" value="&lt;font style=&quot;font-size: 14px&quot;&gt;&lt;b&gt;Android&lt;br&gt;App&lt;/b&gt;&lt;/font&gt;" style="rounded=0;whiteSpace=wrap;html=1;direction=south;fillColor=#dae8fc;strokeColor=#6c8ebf;" vertex="1" parent="1">
          <mxGeometry x="600" y="280" width="80" height="160" as="geometry" />
        </mxCell>
        <mxCell id="6k-jlg43PYKRCVEYtK7U-11" value="" style="endArrow=none;dashed=1;html=1;exitX=1;exitY=0.75;exitDx=0;exitDy=0;entryX=0.5;entryY=1;entryDx=0;entryDy=0;" edge="1" parent="1" source="6k-jlg43PYKRCVEYtK7U-5" target="6k-jlg43PYKRCVEYtK7U-6">
          <mxGeometry width="50" height="50" relative="1" as="geometry">
            <mxPoint x="370" y="530" as="sourcePoint" />
            <mxPoint x="440" y="530" as="targetPoint" />
            <Array as="points" />
          </mxGeometry>
        </mxCell>
        <mxCell id="6k-jlg43PYKRCVEYtK7U-13" value="" style="endArrow=none;dashed=1;html=1;exitX=1.006;exitY=0.36;exitDx=0;exitDy=0;exitPerimeter=0;entryX=0.25;entryY=1;entryDx=0;entryDy=0;" edge="1" parent="1" source="6k-jlg43PYKRCVEYtK7U-5" target="6k-jlg43PYKRCVEYtK7U-6">
          <mxGeometry width="50" height="50" relative="1" as="geometry">
            <mxPoint x="390" y="580" as="sourcePoint" />
            <mxPoint x="440" y="530" as="targetPoint" />
          </mxGeometry>
        </mxCell>
        <mxCell id="6k-jlg43PYKRCVEYtK7U-14" value="&lt;b style=&quot;font-size: 16px&quot;&gt;Wireless&amp;nbsp;&lt;br&gt;transmission&lt;/b&gt;" style="text;html=1;align=center;verticalAlign=middle;resizable=0;points=[];autosize=1;" vertex="1" parent="1">
          <mxGeometry x="450" y="390" width="120" height="40" as="geometry" />
        </mxCell>
        <mxCell id="6k-jlg43PYKRCVEYtK7U-15" value="&lt;font style=&quot;font-size: 16px&quot;&gt;&lt;b&gt;Audio&lt;br&gt;signal&lt;/b&gt;&lt;/font&gt;" style="text;html=1;align=center;verticalAlign=middle;resizable=0;points=[];autosize=1;" vertex="1" parent="1">
          <mxGeometry x="170" y="370" width="60" height="40" as="geometry" />
        </mxCell>
      </root>
    </mxGraphModel>
  </diagram>
</mxfile>
